<svg xmlns="http://www.w3.org/2000/svg" version="1.1" xmlns:xlink="http://www.w3.org/1999/xlink" xmlns:svgjs="http://svgjs.dev/svgjs" width="1000" height="1125" viewBox="0 0 1000 1125"><g transform="matrix(1,0,0,1,0.00007343750002064553,0)"><svg viewBox="0 0 320 360" data-background-color="#000000" preserveAspectRatio="xMidYMid meet" height="1125" width="1000" xmlns="http://www.w3.org/2000/svg" xmlns:xlink="http://www.w3.org/1999/xlink"><g id="tight-bounds" transform="matrix(1,0,0,1,0.000023499999997511622,0)"><svg viewBox="0 0 320 360" height="360" width="320"><g><svg></svg></g><g><svg viewBox="0 0 320 360" height="360" width="320"><g><path transform="translate(-74.99272,-51.79039) scale(4.65793,4.65793)" d="M20.6 59.9l0.8 1-0.4-1.3c-0.1-0.6-0.8 0.1-0.4 0.3M21.5 59.3c0.3 0.5 0.6 1 0.6 1.5 0 0.7 0.6 1 1.1 1.2-0.7-0.8-1.1-3-1.7-2.7M59.9 16.9c1.7 0 3.3-0.2 5.1 0.2 4.4 1.1 8.1 3.3 10.6 6.4l7 11.2c0.3 2.8 0.9 5.9 0.8 9.3 0.7 0 0.6-1 1.4-1.2-0.8 2-1.2 4.5-1.4 7.4-0.5-1.6 0-4 0.1-5.3-0.7 1.1-1.1 0.3-1.1-0.2 0.1-0.8-0.3-0.7-0.6-1-1.1-1-1.8-2.1-2.6-3.8 0.5-1.3 0.6-3.2-1-4.2-0.5-0.3-1.1-0.8-1.4-1.6-0.4-1.1-1.1-2.4-0.9-4.1 0.1-0.5-1.5 1.1-2.4 0.4-3.9-2.7-7.8-5.8-12.5-8.4-2.5 0-4.3-0.9-5.2-2-0.8-1-0.2-2.3 1-2.4 0.7 0 1.5-0.2 2.1 0.2 0.1-0.4 0.5-0.9 1-0.9M50 14.6l0.2 0.1c1 0.2 1.5 1.6 2.6 1.1 0 0.7 0.1 1.4-0.1 1.9-0.3 0.8-1.2 0.8-1.9 0.8-6.7-0.4-10.6 2.4-14.7 4.8-1.1 0.7-2.3 1.2-3.2 2.1-4.3 4-9 7.7-10.1 15.1l-0.9 8.2c-0.1 0.9-1.1 1.8-0.9 2.9l0.7 4.9c-0.7-0.7-1.1 0.2-0.9 0.6 0.1 0.3 0.5 1.3 1.1 0.4 0.8 1.5 1.6 4.4 2.7 5.7 3.4 4 7.8 7.6 11.4 11.2 0.9-0.2 1.6-0.2 1.8-0.8 0.3 0.6-0.3 1.2-0.8 1.3 1.6 1 3.4 1.9 5.8 2.1 3.1 0.2 6 0.7 8.7 1.4 1.4-0.4 2.8-0.6 4.3-0.7 0.5 0 0.8-0.8 1.4-1l0.1-1c0.6 0.9 0.5-0.3 0.1-0.9 0.7 0.6 0.9 1.1 1.2 1.5 0-0.3 0.8-1.4 0.8-0.1l0.2-1.3c0.3-0.2 0.4 1.1 0.7 0.2 0.3-0.9 0.9-0.2 1.5-0.5-0.2 0.4-0.1 1.2 0.6 0.7l0.8-0.7c0.5 1.2 1.3 0.7 1.7 0.5 4.4-2.8 8.8-6.1 13-9.4l-0.1 1.3 0.5-1.6c0.5 0.5 0.9 0.1 1.1-0.2 0.6-1 1.4-2 2.7-2.9-1.6 4.3-3.5 7.7-5.9 10.5l-1 1.2c0 0.7-0.2 1.6-1 1.7-0.4 0.1-1.2-0.2-1.8 0.4-0.3 0.4 0.7 1.2-0.1 0.6-0.7-0.5-1.4 0-2.2 0.2-0.6 0.2 0.4 0.8 0.6 1.2 0.2 0.4 0.4 0.8 0.3 1.3l-1.1-1.2c-1.3 0.7-2.1 2-3.2 3-0.5 0.4-0.3 1.1-0.3 1.7-0.7 0-1.5-0.2-1.9 0.2-0.3 0.4-0.2 1-0.2 1.6-1-0.1-1.1-1.6-2-1.3-0.9 0.2-1.9 0.3-2.7 0.8 0.6 1.2-1 0.5-0.8 0.7-1.5-0.9-2.8-1.6-4.4-1-3.4-1.1-7.6-0.6-10.7-0.2 0-0.5 0.1-1-0.1-1.1-0.2 0.5-0.8 0.3-0.7 0.3-1.9-1.3-3.8-2.1-5.8-3.2-1.8 0.2-3.5-0.7-4-1.2-1.4-1.3-3-0.6-4.3-0.9-2.8-0.7-3.8-3.6-4.1-5.6-0.2-1-1-1.4-1.3-1.3-1.3-4.2-3.3-8-4.9-11.9-0.4-1-0.3-2-0.3-3.1 0.5 0.2 1 0.1 0.9-0.6-0.5-3.3-1.7-5.8-3-8.2 0.7-3.4 0.8-7.4 2.4-10.4 1.4-2.7 4-4.1 5.8-6.4 0.6-0.8 0.6-1.9 1.2-2.6 2-2 4-4.1 6.2-5.9 1-0.8 2.2 0 3.7-0.3 0.5-1.8 2.5-3.4 4.4-2.9 0.8 0.2 2.4-1.9 2.9-2.1 0.8-0.3 0.4 0.8 0.4 1.5 1.9-1.5 4.5-2.3 6.9-3.2" fill="#000000" fill-rule="nonzero" stroke="none" stroke-width="1" stroke-linecap="butt" stroke-linejoin="miter" stroke-miterlimit="10" stroke-dasharray="" stroke-dashoffset="0" font-family="none" font-weight="none" font-size="none" text-anchor="none" style="mix-blend-mode: normal" data-fill-palette-color="tertiary"></path></g><g transform="matrix(1,0,0,1,89.53656781608493,90)"><svg viewBox="0 0 140.92686436783015 180" height="180" width="140.92686436783015"><g><svg viewBox="0 0 178.88760000000002 228.4856627190405" height="180" width="140.92686436783015"><g><svg viewBox="0 0 178.88760000000002 228.4856627190405" height="228.4856627190405" width="178.88760000000002"><g id="textblocktransform"><svg viewBox="0 0 178.88760000000002 228.4856627190405" height="228.4856627190405" width="178.88760000000002" id="textblock"><g><svg viewBox="0 0 178.88760000000002 178.88760000000002" height="178.88760000000002" width="178.88760000000002"><g transform="matrix(1,0,0,1,58.85749160149902,57.82064124245335)"><svg viewBox="0 0 61.17261679700198 63.24631751509333" height="63.24631751509333" width="61.17261679700198"><g><svg xmlns="http://www.w3.org/2000/svg" data-name="Layer 1" viewBox="2.0000088223091512 0.9999674230667437 58.999982355381704 61.00003257693326" x="0" y="0" height="63.24631751509333" width="61.17261679700198" class="icon-xg-0" data-fill-palette-color="accent" id="xg-0"><path d="M40 58H24a4 4 0 0 0 4 4h8A4 4 0 0 0 40 58Z" fill="#000000" data-fill-palette-color="accent"></path><path d="M47 20a5.937 5.937 0 0 0-4.688-5.872 2.494 2.494 0 0 0 1.07 4.75v1a3.495 3.495 0 0 1-1.278-6.75A5.859 5.859 0 0 0 36.379 8 5.627 5.627 0 0 0 33 9.133V24.886a3.467 3.467 0 0 1 2.24-0.833 3.504 3.504 0 0 1 3.5 3.5h-1A2.493 2.493 0 0 0 33 26.464V38.867A5.627 5.627 0 0 0 36.379 40a5.88 5.88 0 0 0 5.775-5.628 2.476 2.476 0 0 0-1.489-0.504 2.503 2.503 0 0 0-2.5 2.5h-1a3.504 3.504 0 0 1 3.5-3.5 3.467 3.467 0 0 1 2.249 0.841A5.958 5.958 0 0 0 47 28a6.092 6.092 0 0 0-1.484-4A6.092 6.092 0 0 0 47 20Z" fill="#000000" data-fill-palette-color="accent"></path><path d="M22.828 14c0 0.03 0.004 0.059 0.004 0.089A5.939 5.939 0 0 0 18 20a6.092 6.092 0 0 0 1.484 4A6.092 6.092 0 0 0 18 28a5.938 5.938 0 0 0 4.815 5.906 2.5 2.5 0 0 0-0.969-4.804v-1a3.49 3.49 0 0 1 1.057 6.819A5.857 5.857 0 0 0 28.621 40 5.627 5.627 0 0 0 32 38.867V18.442A3.495 3.495 0 0 1 26 16h1a2.5 2.5 0 0 0 5 0V9.133A5.627 5.627 0 0 0 28.621 8 5.899 5.899 0 0 0 22.828 14Z" fill="#000000" data-fill-palette-color="accent"></path><path d="M53.5 22C53.5 10.785 44.056 2 32 2S10.5 10.785 10.5 22c0 5.325 2.1 12.374 5.479 18.396 1.795 3.199 3.824 7.311 3.99 11.114A2.437 2.437 0 0 0 19 53.449v1.101A2.45 2.45 0 0 0 21.449 57H42.551A2.45 2.45 0 0 0 45 54.55v-1.101a2.437 2.437 0 0 0-0.969-1.939c0.165-3.804 2.194-7.916 3.99-11.114C51.4 34.374 53.5 27.325 53.5 22ZM42.038 51H33.375V45h-2v6H21.962c-0.305-4.093-2.398-8.303-4.239-11.583C14.55 33.763 12.5 26.926 12.5 22 12.5 11.907 21.065 4 32 4s19.5 7.907 19.5 18c0 4.926-2.05 11.763-5.223 17.417C44.436 42.697 42.343 46.907 42.038 51Z" fill="#000000" data-fill-palette-color="accent"></path><path d="M55.751 9.831a0.268 0.268 0 0 0 0.498 0A4.284 4.284 0 0 1 58.831 7.249a0.268 0.268 0 0 0 0-0.498A4.284 4.284 0 0 1 56.249 4.169a0.268 0.268 0 0 0-0.498 0 4.284 4.284 0 0 1-2.582 2.582 0.268 0.268 0 0 0 0 0.498A4.284 4.284 0 0 1 55.751 9.831Z" fill="#000000" data-fill-palette-color="accent"></path><path d="M2.169 4.249A4.284 4.284 0 0 1 4.751 6.831a0.268 0.268 0 0 0 0.498 0A4.284 4.284 0 0 1 7.831 4.249a0.268 0.268 0 0 0 0-0.498A4.284 4.284 0 0 1 5.249 1.169a0.268 0.268 0 0 0-0.498 0A4.284 4.284 0 0 1 2.169 3.751 0.268 0.268 0 0 0 2.169 4.249Z" fill="#000000" data-fill-palette-color="accent"></path><path d="M6.751 43.831a0.268 0.268 0 0 0 0.498 0A4.284 4.284 0 0 1 9.831 41.249a0.268 0.268 0 0 0 0-0.498A4.284 4.284 0 0 1 7.249 38.169a0.268 0.268 0 0 0-0.498 0 4.284 4.284 0 0 1-2.582 2.582 0.268 0.268 0 0 0 0 0.498A4.284 4.284 0 0 1 6.751 43.831Z" fill="#000000" data-fill-palette-color="accent"></path><path d="M60.831 49.751a4.284 4.284 0 0 1-2.582-2.582 0.268 0.268 0 0 0-0.498 0 4.284 4.284 0 0 1-2.582 2.582 0.268 0.268 0 0 0 0 0.498 4.284 4.284 0 0 1 2.582 2.582 0.268 0.268 0 0 0 0.498 0A4.284 4.284 0 0 1 60.831 50.249 0.268 0.268 0 0 0 60.831 49.751Z" fill="#000000" data-fill-palette-color="accent"></path></svg></g></svg></g><g><path d="M14.61 50.368l4.432 3.565c0.055 0.066 0.152 0.127 0.292 0.183v0c0.115 0.046 0.22 0.05 0.315 0.015 0.093-0.029 0.159-0.095 0.2-0.197v0c0.081-0.204 0.062-0.414-0.058-0.632-0.126-0.22-0.179-0.355-0.159-0.406v0c0.035-0.089 0.121-0.136 0.255-0.142 0.128-0.008 0.272 0.02 0.431 0.084v0c0.495 0.182 0.911 0.536 1.248 1.06 0.334 0.531 0.521 1.184 0.559 1.958 0.036 0.781-0.13 1.633-0.497 2.556v0c-0.448 1.127-1.066 1.92-1.854 2.381-0.788 0.461-1.62 0.524-2.497 0.19v0c-0.63-0.251-1.279-0.686-1.947-1.305v0l-3.123-2.879c-0.19-0.171-0.355-0.285-0.495-0.341v0c-0.223-0.089-0.427-0.085-0.612 0.011-0.186 0.096-0.319 0.245-0.4 0.449v0c-0.149 0.376-0.117 0.805 0.096 1.288 0.216 0.477 0.55 0.897 1.002 1.261v0l4.602 3.666c0.157 0.143 0.321 0.249 0.492 0.318v0c0.204 0.081 0.387 0.102 0.55 0.064 0.167-0.03 0.347-0.094 0.542-0.194v0c0.15-0.08 0.28-0.128 0.389-0.144 0.103-0.018 0.209 0.013 0.316 0.093v0c0.195 0.159 0.293 0.386 0.294 0.681-0.002 0.301-0.111 0.723-0.326 1.263v0l-2.328 5.853c-0.177 0.446-0.378 0.738-0.604 0.877-0.222 0.133-0.441 0.127-0.656-0.018v0c-0.178-0.145-0.289-0.395-0.332-0.751v0c-0.032-0.308-0.11-0.586-0.232-0.833-0.116-0.245-0.357-0.511-0.723-0.797v0l-6.501-5.229c-0.07-0.065-0.185-0.129-0.344-0.192v0c-0.185-0.073-0.343-0.092-0.475-0.056-0.132 0.036-0.312 0.108-0.539 0.216v0c-0.202 0.119-0.367 0.19-0.494 0.213-0.13 0.029-0.27-0.015-0.422-0.135v0c-0.354-0.259-0.487-0.935-0.399-2.027 0.088-1.093 0.344-2.171 0.767-3.234v0c0.339-0.853 0.843-1.434 1.511-1.743 0.669-0.309 1.41-0.272 2.224 0.111v0c-0.727-1.1-1.126-2.118-1.197-3.053-0.074-0.944 0.072-1.877 0.439-2.8v0c0.415-1.044 1.066-1.762 1.952-2.154 0.89-0.383 1.837-0.375 2.843 0.025v0c0.535 0.213 1.022 0.506 1.463 0.881z" fill="#000000" data-fill-palette-color="primary"></path><path d="M60.077 4.944c2.351-0.871 4.258-1.037 5.721-0.498 1.463 0.539 2.48 1.576 3.049 3.111v0c0.19 0.514 0.337 1.117 0.44 1.809v0c0.196 1.535 0.041 2.998-0.466 4.392-0.507 1.393-1.301 2.619-2.384 3.678-1.09 1.061-2.396 1.874-3.919 2.438v0c-2.396 0.888-4.346 1.066-5.85 0.535-1.498-0.533-2.541-1.593-3.129-3.18v0c-0.198-0.533-0.35-1.152-0.458-1.858v0c-0.172-1.47 0.011-2.897 0.551-4.28 0.537-1.39 1.366-2.621 2.488-3.694 1.122-1.073 2.441-1.891 3.957-2.453zM60.853 7.276c-0.36 0.133-0.622 0.599-0.786 1.398-0.164 0.799-0.191 2.196-0.079 4.193v0c0.112 1.997 0.302 3.358 0.571 4.084v0c0.14 0.379 0.295 0.61 0.465 0.693 0.163 0.086 0.351 0.089 0.563 0.011v0c0.374-0.095 0.636-0.542 0.784-1.343 0.143-0.798 0.154-2.256 0.034-4.374v0c-0.079-1.87-0.259-3.184-0.54-3.942v0c-0.136-0.366-0.286-0.595-0.452-0.687-0.162-0.101-0.348-0.112-0.56-0.033z" fill="#000000" data-fill-palette-color="primary"></path><path d="M133.493 11.53c0.315 0.151 0.526 0.336 0.633 0.555 0.111 0.213 0.109 0.436-0.003 0.671v0c-0.03 0.062-0.1 0.169-0.211 0.321v0c-0.566 0.625-1.238 0.75-2.016 0.376v0l-1.445-0.694-4.826 5.25c-0.199 0.208-0.362 0.445-0.49 0.711v0c-0.142 0.296-0.158 0.543-0.048 0.741 0.11 0.197 0.314 0.367 0.61 0.509v0c0.265 0.128 0.612 0.252 1.04 0.375v0c0.227 0.049 0.415 0.108 0.564 0.179v0c0.117 0.056 0.186 0.135 0.205 0.236 0.02 0.101 0.002 0.21-0.054 0.327v0c-0.142 0.342-0.578 0.626-1.31 0.853-0.735 0.232-1.613 0.312-2.635 0.238-1.028-0.076-2.063-0.364-3.106-0.865v0c-1.13-0.543-1.911-1.234-2.344-2.073-0.433-0.839-0.434-1.706-0.004-2.601v0c0.202-0.42 0.458-0.787 0.768-1.102v0l3.961-4.161c0.223-0.242 0.374-0.447 0.455-0.614v0c0.157-0.327 0.212-0.647 0.164-0.958-0.042-0.309-0.145-0.655-0.311-1.039v0c-0.134-0.353-0.217-0.632-0.247-0.837-0.022-0.208 0.043-0.405 0.193-0.591v0c0.172-0.183 0.394-0.282 0.666-0.295 0.272-0.013 0.64 0.091 1.104 0.313v0l1.398 0.672 2.317-0.813c0.814-0.285 1.498-0.428 2.052-0.427 0.561 0.003 1.205 0.18 1.934 0.53v0c1.05 0.504 1.383 1.155 1.001 1.952v0c-0.122 0.253-0.267 0.468-0.436 0.645v0l-0.904 0.979z" fill="#000000" data-fill-palette-color="primary"></path><path d="M174.295 60.272c0.8 2.195 1.032 3.911 0.696 5.149-0.343 1.24-1.058 2.059-2.146 2.455v0c-0.328 0.12-0.644 0.195-0.946 0.225v0c-1.239 0.16-2.32-0.263-3.24-1.269-0.927-1.004-1.684-2.31-2.271-3.918v0c-0.296-0.811-0.521-1.589-0.676-2.335v0c-0.902 0.307-1.444 0.778-1.628 1.414-0.177 0.633-0.103 1.397 0.223 2.292v0c0.152 0.418 0.346 0.8 0.581 1.144 0.229 0.347 0.546 0.778 0.953 1.293v0c0.352 0.426 0.56 0.726 0.623 0.899v0c0.068 0.187-0.011 0.321-0.236 0.404v0c-0.598 0.24-1.317 0.247-2.158 0.021-0.832-0.222-1.65-0.707-2.455-1.457-0.796-0.745-1.431-1.764-1.902-3.058v0c-0.701-1.924-0.792-3.674-0.273-5.248 0.524-1.583 1.709-2.712 3.556-3.385v0c0.521-0.19 1.151-0.343 1.889-0.459v0c2.29-0.339 4.238 0.026 5.846 1.095 1.614 1.067 2.802 2.646 3.564 4.738zM167.333 60.196c0.011 0.069 0.038 0.165 0.083 0.287v0c0.265 0.727 0.801 1.159 1.609 1.294 0.814 0.133 1.633 0.039 2.457-0.282v0c0.478-0.189 0.669-0.415 0.572-0.679v0c-0.068-0.187-0.3-0.354-0.696-0.501-0.399-0.154-0.946-0.246-1.643-0.276-0.696-0.03-1.49 0.022-2.382 0.157z" fill="#000000" data-fill-palette-color="primary"></path><path d="M17.681 127.598l-5.439 0.4c-0.076-0.007-0.181 0.016-0.315 0.068v0c-0.115 0.045-0.193 0.109-0.234 0.191-0.041 0.082-0.043 0.171-0.006 0.267v0c0.077 0.198 0.23 0.333 0.457 0.406 0.227 0.073 0.351 0.135 0.371 0.186v0c0.033 0.083 0.003 0.168-0.088 0.255-0.088 0.094-0.206 0.169-0.352 0.226v0c-0.471 0.207-0.994 0.232-1.571 0.075-0.58-0.148-1.138-0.481-1.672-1-0.537-0.525-0.978-1.228-1.323-2.108v0c-0.425-1.084-0.515-2.046-0.27-2.885 0.254-0.835 0.795-1.426 1.622-1.773v0c0.606-0.237 1.347-0.355 2.224-0.352v0l4.068-0.039c0.249-0.002 0.438-0.028 0.565-0.078v0c0.217-0.085 0.358-0.221 0.425-0.409 0.066-0.188 0.061-0.381-0.017-0.579v0c-0.14-0.357-0.441-0.637-0.903-0.838-0.466-0.193-0.973-0.266-1.521-0.22v0l-5.622 0.438c-0.21 0.009-0.395 0.044-0.554 0.107v0c-0.198 0.077-0.344 0.183-0.439 0.315-0.089 0.13-0.168 0.294-0.238 0.491v0c-0.057 0.155-0.118 0.271-0.184 0.348-0.063 0.084-0.158 0.132-0.285 0.145v0c-0.235 0.019-0.453-0.076-0.653-0.285-0.191-0.205-0.39-0.572-0.597-1.101v0l-2.201-5.616c-0.165-0.421-0.215-0.755-0.15-1.001 0.065-0.246 0.223-0.389 0.472-0.428v0c0.223-0.014 0.462 0.091 0.72 0.314v0c0.225 0.199 0.461 0.342 0.708 0.429 0.244 0.096 0.586 0.124 1.026 0.083v0l7.976-0.599c0.089 0.002 0.21-0.027 0.364-0.087v0c0.179-0.07 0.302-0.159 0.37-0.267 0.072-0.117 0.149-0.286 0.23-0.51v0c0.071-0.212 0.141-0.372 0.21-0.479 0.071-0.101 0.199-0.159 0.384-0.173v0c0.414-0.052 0.948 0.335 1.603 1.16 0.654 0.825 1.18 1.745 1.578 2.759v0c0.323 0.823 0.354 1.561 0.095 2.214-0.268 0.649-0.812 1.109-1.633 1.379v0c1.232 0.29 2.18 0.738 2.845 1.346 0.661 0.616 1.165 1.368 1.513 2.255v0c0.393 1.001 0.406 1.927 0.04 2.776-0.363 0.856-1.03 1.474-1.999 1.854v0c-0.51 0.2-1.043 0.313-1.6 0.34z" fill="#000000" data-fill-palette-color="primary"></path><path d="M64.674 161.7c2.245 0.841 3.731 1.913 4.457 3.216 0.724 1.31 0.811 2.699 0.261 4.168v0c-0.185 0.494-0.459 1.02-0.822 1.58v0c-0.821 1.236-1.848 2.201-3.081 2.894-1.242 0.698-2.588 1.09-4.039 1.176-1.458 0.083-2.911-0.147-4.361-0.69v0c-2.297-0.86-3.822-1.954-4.575-3.282-0.753-1.328-0.847-2.749-0.28-4.263v0c0.192-0.513 0.47-1.06 0.834-1.641v0c0.797-1.172 1.825-2.089 3.082-2.752 1.26-0.669 2.632-1.041 4.115-1.114 1.483-0.074 2.953 0.162 4.409 0.708zM63.772 163.875c-0.346-0.13-0.827 0.041-1.443 0.512-0.624 0.476-1.52 1.471-2.688 2.988v0c-1.17 1.522-1.885 2.63-2.144 3.322v0c-0.137 0.366-0.171 0.631-0.1 0.796 0.07 0.165 0.201 0.284 0.393 0.356v0c0.334 0.162 0.804 0.001 1.409-0.481 0.608-0.489 1.533-1.536 2.778-3.14v0c1.114-1.412 1.806-2.48 2.078-3.205v0c0.13-0.346 0.165-0.607 0.107-0.783-0.061-0.169-0.191-0.291-0.39-0.365z" fill="#000000" data-fill-palette-color="primary"></path><path d="M127.402 156.48c0.303-0.145 0.568-0.193 0.797-0.144 0.226 0.043 0.392 0.176 0.5 0.399v0c0.033 0.068 0.071 0.186 0.113 0.356v0c0.134 0.802-0.172 1.382-0.919 1.741v0l-1.38 0.662 1.026 6.745c0.042 0.276 0.123 0.541 0.245 0.794v0c0.136 0.284 0.308 0.445 0.516 0.482 0.214 0.034 0.463-0.017 0.747-0.153v0c0.259-0.125 0.563-0.308 0.91-0.551v0c0.168-0.141 0.323-0.246 0.464-0.314v0c0.111-0.053 0.212-0.056 0.304-0.009 0.088 0.041 0.159 0.117 0.212 0.228v0c0.173 0.312 0.126 0.809-0.139 1.492-0.268 0.691-0.739 1.396-1.412 2.114-0.67 0.725-1.506 1.327-2.506 1.807v0c-1.081 0.519-2.064 0.687-2.95 0.504-0.889-0.174-1.539-0.69-1.951-1.547v0c-0.193-0.401-0.312-0.815-0.357-1.242v0l-0.745-5.445c-0.05-0.31-0.114-0.546-0.19-0.706v0c-0.151-0.315-0.354-0.548-0.61-0.699-0.261-0.148-0.582-0.279-0.963-0.392v0c-0.348-0.107-0.605-0.215-0.771-0.325-0.17-0.101-0.279-0.265-0.328-0.493v0c-0.039-0.24 0.02-0.465 0.176-0.677 0.15-0.209 0.448-0.42 0.893-0.634v0l1.334-0.64 0.78-2.221c0.273-0.777 0.58-1.372 0.92-1.787 0.338-0.42 0.855-0.798 1.553-1.133v0c1-0.48 1.684-0.338 2.052 0.428v0c0.113 0.235 0.189 0.472 0.228 0.712v0l0.191 1.253z" fill="#000000" data-fill-palette-color="primary"></path><path d="M160.814 114.603c0.759-2.108 1.644-3.514 2.656-4.22 1.011-0.706 2.039-0.871 3.083-0.496v0c0.316 0.114 0.593 0.254 0.832 0.42v0c1.007 0.639 1.544 1.615 1.61 2.928 0.062 1.304-0.184 2.726-0.739 4.266v0c-0.281 0.78-0.596 1.493-0.944 2.139v0c0.859 0.324 1.548 0.31 2.068-0.042 0.522-0.358 0.939-0.969 1.249-1.832v0c0.144-0.4 0.236-0.796 0.276-1.19 0.042-0.4 0.074-0.913 0.095-1.538v0c0-0.524 0.029-0.87 0.09-1.038v0c0.067-0.187 0.211-0.241 0.429-0.162v0c0.585 0.196 1.116 0.631 1.594 1.306 0.476 0.681 0.778 1.54 0.907 2.576 0.133 1.045-0.024 2.19-0.472 3.434v0c-0.661 1.837-1.668 3.178-3.021 4.023-1.359 0.843-2.925 0.945-4.697 0.307v0c-0.496-0.179-1.052-0.455-1.667-0.829v0c-1.895-1.148-3.104-2.61-3.63-4.387-0.534-1.772-0.44-3.661 0.281-5.665zM165.885 118.93c0.045-0.064 0.088-0.154 0.13-0.27v0c0.251-0.696 0.115-1.342-0.405-1.937-0.512-0.599-1.171-1.033-1.978-1.302v0c-0.469-0.154-0.748-0.106-0.839 0.146v0c-0.065 0.18 0.002 0.449 0.202 0.804 0.202 0.349 0.549 0.751 1.041 1.205 0.501 0.45 1.117 0.901 1.849 1.354z" fill="#000000" data-fill-palette-color="primary"></path><path d="M0 90.009c0-3.716 3.012-6.728 6.728-6.727 3.716 0 6.728 3.012 6.727 6.727 0 3.716-3.012 6.728-6.727 6.728-3.716 0-6.728-3.012-6.728-6.728z" fill="#000000" data-fill-palette-color="primary"></path><path d="M165.432 90.009c0-3.716 3.012-6.728 6.728-6.727 3.716 0 6.728 3.012 6.728 6.727 0 3.716-3.012 6.728-6.728 6.728-3.716 0-6.728-3.012-6.728-6.728z" fill="#000000" data-fill-palette-color="primary"></path></g></svg></g><g transform="matrix(1,0,0,1,34.16753160000001,189.48012000000003)"><svg viewBox="0 0 110.5525368 39.005542719040484" height="39.005542719040484" width="110.5525368"><g transform="matrix(1,0,0,1,0,0)"><svg width="110.5525368" viewBox="1.12 -34.08 97.69999999999999 34.47" height="39.005542719040484" data-palette-color="#ddeedd"><path d="M12.6-1.86L12.5 0 1.71 0 1.56-1.76 4.59-2.49Q4.64-2.98 4.66-3.54 4.69-4.1 4.69-4.91 4.69-5.71 4.69-6.86 4.69-8.01 4.69-9.67L4.69-9.67 4.64-18.46 4.64-24.02Q4.64-27.15 5.62-29.39 6.59-31.64 8.35-32.86 10.11-34.08 12.45-34.08L12.45-34.08Q14.4-34.08 15.75-33.2 17.09-32.32 17.09-31.05L17.09-31.05Q17.09-30.37 16.65-29.96 16.21-29.54 15.48-29.54L15.48-29.54Q14.26-29.54 13.18-30.62L13.18-30.62 10.94-32.76 12.11-32.47Q10.3-32.47 9.33-30.62 8.35-28.76 8.35-25.39L8.35-25.39 8.35-20.9 8.4-18.46 8.45-10.06Q8.45-7.91 8.5-5.79 8.54-3.66 8.59-2.49L8.59-2.49 12.6-1.86ZM13.77-18.46L1.12-18.46 1.12-20.07 4.64-20.9 8.25-20.9 13.77-20.9 13.77-18.46ZM27.68 0L16.4 0 16.26-1.76 19.28-2.49Q19.33-2.73 19.38-3.34 19.43-3.96 19.46-5.05 19.48-6.15 19.48-7.71L19.48-7.71 19.53-11.52Q19.53-13.13 19.41-14.72 19.28-16.31 19.14-17.19L19.14-17.19 16.01-17.87 16.01-19.48 22.56-21.29 23.24-20.61 23.04-16.5 23.19-16.46Q24.66-19.29 26.14-20.29 27.63-21.29 29-21.29L29-21.29Q30.12-21.29 30.88-20.7 31.64-20.12 31.64-19.04L31.64-19.04Q31.64-17.92 30.83-17.29 30.03-16.65 28.81-16.65L28.81-16.65Q27.93-16.65 27.12-17.04 26.32-17.43 25.58-18.12L25.58-18.12 26.46-17.82Q25.58-17.24 24.75-16.16 23.92-15.09 23.19-13.57L23.19-13.57 23.24-9.03Q23.29-7.81 23.34-6.52 23.39-5.22 23.44-4.13 23.48-3.03 23.53-2.49L23.53-2.49 27.78-1.86 27.68 0ZM43.6 0.39L43.6 0.39Q40.77 0.39 38.47-0.88 36.18-2.15 34.86-4.52 33.54-6.88 33.54-10.11L33.54-10.11Q33.54-13.57 34.96-16.11 36.37-18.65 38.67-20.04 40.96-21.44 43.6-21.39L43.6-21.39Q47.41-21.34 49.56-18.87 51.7-16.41 51.7-11.82L51.7-11.82 51.7-10.94 36.71-10.94 36.71-13.09 48.48-13.09 47.94-12.45 47.94-13.48Q47.94-16.26 46.7-17.8 45.45-19.34 43.21-19.34L43.21-19.34Q41.84-19.34 40.57-18.53 39.3-17.72 38.52-16.09 37.74-14.45 37.74-11.96L37.74-11.96 37.74-11.38Q37.74-7.37 39.72-5.13 41.69-2.88 44.82-2.88L44.82-2.88Q46.58-2.88 47.92-3.54 49.26-4.2 50.53-5.76L50.53-5.76 51.75-4.64Q50.39-2.1 48.29-0.85 46.19 0.39 43.6 0.39ZM63.03 0.39L63.03 0.39Q61.22 0.39 59.42-0.02 57.61-0.44 56.34-1.12L56.34-1.12 56.1-6.35 58.49-6.35 59.47-2.83Q61.08-1.66 63.37-1.66L63.37-1.66Q64.98-1.66 66.03-2.47 67.08-3.27 67.08-4.64L67.08-4.64Q67.08-5.96 66.15-6.88 65.23-7.81 62.54-8.94L62.54-8.94Q59.07-10.45 57.66-11.87 56.24-13.28 56.24-15.43L56.24-15.43Q56.24-17.19 57.29-18.53 58.34-19.87 60.2-20.63 62.05-21.39 64.49-21.39L64.49-21.39Q65.86-21.39 67.28-21.17 68.69-20.95 69.62-20.51L69.62-20.51 70.16-15.43 67.86-15.43 66.69-18.75Q66.2-19.04 65.52-19.21 64.84-19.38 64.06-19.38L64.06-19.38Q62.35-19.38 61.32-18.58 60.3-17.77 60.3-16.5L60.3-16.5Q60.3-15.04 61.42-14.14 62.54-13.23 65.37-11.91L65.37-11.91Q68.6-10.45 69.87-9.03 71.14-7.62 71.14-5.62L71.14-5.62Q71.14-2.98 68.84-1.29 66.55 0.39 63.03 0.39ZM84.61 0L74.6 0 74.5-1.76 77.53-2.49Q77.63-3.03 77.65-4.13 77.68-5.22 77.72-7.08 77.77-8.94 77.77-11.62L77.77-11.62 77.77-17.72Q77.77-19.38 77.75-21.29 77.72-23.19 77.7-24.98 77.68-26.76 77.63-28.1 77.58-29.44 77.58-29.83L77.58-29.83 73.96-30.32 73.87-31.88 80.75-33.89 81.68-33.2Q81.63-31.69 81.58-30.18 81.53-28.66 81.51-26.9 81.48-25.15 81.46-22.97 81.44-20.8 81.44-17.92L81.44-17.92 81.58-17.87Q83.24-19.73 84.9-20.56 86.56-21.39 88.52-21.39L88.52-21.39Q90.32-21.39 91.91-20.46 93.5-19.53 94.5-17.65 95.5-15.77 95.5-12.84L95.5-12.84 95.5-7.57Q95.5-5.81 95.6-4.42 95.69-3.03 95.79-2.49L95.79-2.49 98.82-1.76 98.72 0 88.91 0 88.76-1.76 91.59-2.49Q91.64-2.88 91.69-3.47 91.74-4.05 91.76-4.98 91.79-5.91 91.79-7.23L91.79-7.23 91.79-12.5Q91.79-14.6 91.08-15.89 90.37-17.19 89.25-17.8 88.12-18.41 86.86-18.41L86.86-18.41Q85.24-18.41 83.88-17.63 82.51-16.85 81.48-15.38L81.48-15.38 81.48-8.06Q81.48-5.81 81.56-4.35 81.63-2.88 81.73-2.49L81.73-2.49 84.71-1.76 84.61 0Z" opacity="1" transform="matrix(1,0,0,1,0,0)" fill="#000000" class="slogan-text-1" data-fill-palette-color="secondary" id="text-1"></path></svg></g></svg></g></svg></g></svg></g></svg></g></svg></g></svg></g><defs></defs></svg><rect width="320" height="360" fill="none" stroke="none" visibility="hidden"></rect></g></svg></g></svg>